<mxfile host="app.diagrams.net" modified="2023-11-27T17:43:53.907Z" agent="Mozilla/5.0 (Macintosh; Intel Mac OS X 10_15_7) AppleWebKit/605.1.15 (KHTML, like Gecko) Version/16.4 Safari/605.1.15" etag="GuYDitSqV-3GhP2g4PrO" version="22.1.4" type="device">
  <diagram name="Page-1" id="fmRYD_H-ykptd9t6EEKH">
    <mxGraphModel dx="1464" dy="862" grid="1" gridSize="10" guides="1" tooltips="1" connect="1" arrows="1" fold="1" page="1" pageScale="1" pageWidth="1600" pageHeight="900" math="0" shadow="0">
      <root>
        <mxCell id="0" />
        <mxCell id="1" parent="0" />
        <mxCell id="jOffMtSL_HWWYXBEd0LD-1" value="created" style="edgeStyle=orthogonalEdgeStyle;rounded=0;orthogonalLoop=1;jettySize=auto;html=1;exitX=0.5;exitY=1;exitDx=0;exitDy=0;entryX=0.5;entryY=0;entryDx=0;entryDy=0;" edge="1" parent="1" source="jOffMtSL_HWWYXBEd0LD-2" target="jOffMtSL_HWWYXBEd0LD-22">
          <mxGeometry relative="1" as="geometry">
            <mxPoint x="155" y="210" as="targetPoint" />
            <mxPoint x="150" y="110" as="sourcePoint" />
            <Array as="points" />
          </mxGeometry>
        </mxCell>
        <mxCell id="jOffMtSL_HWWYXBEd0LD-2" value="" style="ellipse;whiteSpace=wrap;html=1;fillColor=#000000;" vertex="1" parent="1">
          <mxGeometry x="140" y="90" width="30" height="30" as="geometry" />
        </mxCell>
        <mxCell id="jOffMtSL_HWWYXBEd0LD-24" value="reserve()" style="edgeStyle=orthogonalEdgeStyle;rounded=0;orthogonalLoop=1;jettySize=auto;html=1;entryX=0;entryY=0.5;entryDx=0;entryDy=0;" edge="1" parent="1" source="jOffMtSL_HWWYXBEd0LD-22" target="jOffMtSL_HWWYXBEd0LD-23">
          <mxGeometry relative="1" as="geometry" />
        </mxCell>
        <mxCell id="jOffMtSL_HWWYXBEd0LD-22" value="Unreserved" style="rounded=0;whiteSpace=wrap;html=1;" vertex="1" parent="1">
          <mxGeometry x="95" y="220" width="120" height="60" as="geometry" />
        </mxCell>
        <mxCell id="jOffMtSL_HWWYXBEd0LD-26" value="checkIn()" style="edgeStyle=orthogonalEdgeStyle;rounded=0;orthogonalLoop=1;jettySize=auto;html=1;entryX=1;entryY=0.5;entryDx=0;entryDy=0;" edge="1" parent="1" source="jOffMtSL_HWWYXBEd0LD-23" target="jOffMtSL_HWWYXBEd0LD-25">
          <mxGeometry relative="1" as="geometry">
            <Array as="points">
              <mxPoint x="510" y="415" />
            </Array>
          </mxGeometry>
        </mxCell>
        <mxCell id="jOffMtSL_HWWYXBEd0LD-28" value="cancelReservation()" style="edgeStyle=orthogonalEdgeStyle;rounded=0;orthogonalLoop=1;jettySize=auto;html=1;entryX=0.75;entryY=0;entryDx=0;entryDy=0;" edge="1" parent="1" source="jOffMtSL_HWWYXBEd0LD-23" target="jOffMtSL_HWWYXBEd0LD-22">
          <mxGeometry relative="1" as="geometry">
            <Array as="points">
              <mxPoint x="510" y="160" />
              <mxPoint x="185" y="160" />
            </Array>
          </mxGeometry>
        </mxCell>
        <mxCell id="jOffMtSL_HWWYXBEd0LD-23" value="Reserved" style="rounded=0;whiteSpace=wrap;html=1;" vertex="1" parent="1">
          <mxGeometry x="450" y="220" width="120" height="60" as="geometry" />
        </mxCell>
        <mxCell id="jOffMtSL_HWWYXBEd0LD-27" value="finishFlight()" style="edgeStyle=orthogonalEdgeStyle;rounded=0;orthogonalLoop=1;jettySize=auto;html=1;entryX=0.5;entryY=1;entryDx=0;entryDy=0;" edge="1" parent="1" source="jOffMtSL_HWWYXBEd0LD-25" target="jOffMtSL_HWWYXBEd0LD-22">
          <mxGeometry relative="1" as="geometry" />
        </mxCell>
        <mxCell id="jOffMtSL_HWWYXBEd0LD-25" value="Checked-In" style="rounded=0;whiteSpace=wrap;html=1;" vertex="1" parent="1">
          <mxGeometry x="260" y="385" width="120" height="60" as="geometry" />
        </mxCell>
      </root>
    </mxGraphModel>
  </diagram>
</mxfile>
